# xmcd
#
# Track frame offsets:
#	182
#	19495
#	47675
#	68422
#	92157
#	116200
#	135532
#	152142
#	172682
#	194107
#	214615
#	234257
#	254507
#	271945
#	291757
#
# Disc length: 4192 seconds
#
# Revision: 0
# Processed by: cddbd v1.5.2PL0 Copyright (c) Steve Scherf et al.
# Submitted via: EZCDAudioConverter 8.0.2.1
#
DISCID=d6105e0f
DTITLE=张学友 - 三年两语 93-95全球最受欢迎国粤语友情歌精选
DYEAR=1995
DGENRE=World Pop
TTITLE0=张学友 - 多么的需要你(多么拉丁版)
TTITLE1=张学友 - 这么近(那么远)
TTITLE2=张学友 - 一千个伤心的理由
TTITLE3=张学友 - 这个冬天不太冷
TTITLE4=张学友 - 我等到花儿也谢了
TTITLE5=张学友 - 只有你不知道
TTITLE6=张学友 - 真爱
TTITLE7=张学友 - 饿狼传说
TTITLE8=张学友 - 望月
TTITLE9=张学友 - 祝福
TTITLE10=张学友.王菲合唱 - 非常夏曰
TTITLE11=张学友 - 旧情绵绵
TTITLE12=张学友 - 来来回回
TTITLE13=张学友 - 等你回来
TTITLE14=张学友 - 吻别
EXTD=
EXTT0=
EXTT1=
EXTT2=
EXTT3=
EXTT4=
EXTT5=
EXTT6=
EXTT7=
EXTT8=
EXTT9=
EXTT10=
EXTT11=
EXTT12=
EXTT13=
EXTT14=
PLAYORDER=
